<?xml version="1.0" encoding="UTF-8"?>
<svg width="128px" height="25px" viewBox="0 0 128 25" version="1.1" xmlns="http://www.w3.org/2000/svg" xmlns:xlink="http://www.w3.org/1999/xlink">
    <!-- Generator: Sketch 54.1 (76490) - https://sketchapp.com -->
    <title>label-duplicate</title>
    <desc>Created with Sketch.</desc>
    <g id="duplicate" stroke="none" stroke-width="1" fill="none" fill-rule="evenodd">
        <g id="Label" transform="translate(0.000000, 1.000000)">
            <rect id="Background" fill="#CFD3D7" x="0" y="0" width="76" height="24" rx="12"></rect>
            <path d="M14.4444336,16.1230469 C12.6260742,16.1230469 11.4229492,14.6738281 11.4229492,12.4042969 C11.4229492,10.1347656 12.6260742,8.69238281 14.4307617,8.69238281 C15.4629883,8.69238281 16.2833008,9.21191406 16.6866211,10.0048828 L16.7139649,10.0048828 L16.7139649,6.13574219 L18.1973633,6.13574219 L18.1973633,16 L16.7618164,16 L16.7618164,14.7763672 L16.7344727,14.7763672 C16.3106445,15.5966797 15.490332,16.1230469 14.4444336,16.1230469 Z M14.834082,9.93652344 C13.6651367,9.93652344 12.9336914,10.8935547 12.9336914,12.4042969 C12.9336914,13.921875 13.6651367,14.8720703 14.834082,14.8720703 C15.9688477,14.8720703 16.7276367,13.9082031 16.7276367,12.4042969 C16.7276367,10.9140625 15.9688477,9.93652344 14.834082,9.93652344 Z M25.6741211,8.80859375 L25.6741211,16 L24.259082,16 L24.259082,14.7832031 L24.2249024,14.7832031 C23.828418,15.6445312 23.0969727,16.1298828 21.9963867,16.1298828 C20.430957,16.1298828 19.4739258,15.1113281 19.4739258,13.4638672 L19.4739258,8.80859375 L20.9504883,8.80859375 L20.9504883,13.1767578 C20.9504883,14.2705078 21.4700195,14.8583984 22.4885742,14.8583984 C23.5549805,14.8583984 24.1975586,14.1201172 24.1975586,12.9990234 L24.1975586,8.80859375 L25.6741211,8.80859375 Z M30.6762695,8.69238281 C32.5014649,8.69238281 33.7045899,10.1279297 33.7045899,12.4042969 C33.7045899,14.6806641 32.5083008,16.1230469 30.7036133,16.1230469 C29.6713867,16.1230469 28.8510742,15.6171875 28.440918,14.8173828 L28.4067383,14.8173828 L28.4067383,18.3789062 L26.9301758,18.3789062 L26.9301758,8.80859375 L28.3588867,8.80859375 L28.3588867,10.0458984 L28.3862305,10.0458984 C28.8100586,9.21875 29.637207,8.69238281 30.6762695,8.69238281 Z M30.2866211,14.8720703 C31.4555664,14.8720703 32.1870117,13.9150391 32.1870117,12.4042969 C32.1870117,10.9003906 31.4555664,9.93652344 30.2866211,9.93652344 C29.1586914,9.93652344 28.3999024,10.9208984 28.3999024,12.4042969 C28.3999024,13.9013672 29.1518555,14.8720703 30.2866211,14.8720703 Z M34.694043,16 L34.694043,6.13574219 L36.1706055,6.13574219 L36.1706055,16 L34.694043,16 Z M37.5360352,16 L37.5360352,8.80859375 L39.0125977,8.80859375 L39.0125977,16 L37.5360352,16 Z M38.2743164,7.64648438 C37.8026367,7.64648438 37.4198242,7.26367188 37.4198242,6.79882812 C37.4198242,6.32714844 37.8026367,5.95117188 38.2743164,5.95117188 C38.7459961,5.95117188 39.1219727,6.32714844 39.1219727,6.79882812 C39.1219727,7.26367188 38.7459961,7.64648438 38.2743164,7.64648438 Z M46.4961914,11.2832031 L45.0879883,11.2832031 C44.9375977,10.5175781 44.3633789,9.90917969 43.3995117,9.90917969 C42.2579102,9.90917969 41.505957,10.859375 41.505957,12.4042969 C41.505957,13.9833984 42.2647461,14.8994141 43.4131836,14.8994141 C44.3223633,14.8994141 44.9170898,14.4003906 45.0879883,13.5664062 L46.5098633,13.5664062 C46.3526367,15.0976562 45.1290039,16.1367188 43.3995117,16.1367188 C41.3418945,16.1367188 40.0020508,14.7285156 40.0020508,12.4042969 C40.0020508,10.1210938 41.3418945,8.67871094 43.3858398,8.67871094 C45.2383789,8.67871094 46.3663086,9.86816406 46.4961914,11.2832031 Z M49.8713867,14.9541016 C50.9036133,14.9541016 51.7102539,14.2431641 51.7102539,13.3066406 L51.7102539,12.7392578 L49.9397461,12.8486328 C49.0579102,12.9101562 48.5588867,13.2998047 48.5588867,13.9150391 C48.5588867,14.5439453 49.078418,14.9541016 49.8713867,14.9541016 Z M49.4612305,16.1230469 C48.0530273,16.1230469 47.0686523,15.2480469 47.0686523,13.9560547 C47.0686523,12.6982422 48.0325195,11.9257812 49.7415039,11.8300781 L51.7102539,11.7138672 L51.7102539,11.1601562 C51.7102539,10.3603516 51.1702148,9.88183594 50.2678711,9.88183594 C49.4133789,9.88183594 48.8801758,10.2919922 48.750293,10.9345703 L47.3557617,10.9345703 C47.437793,9.63574219 48.5452148,8.67871094 50.3225586,8.67871094 C52.0657227,8.67871094 53.1799805,9.6015625 53.1799805,11.0439453 L53.1799805,16 L51.7649414,16 L51.7649414,14.8173828 L51.7307617,14.8173828 C51.3137695,15.6171875 50.4045898,16.1230469 49.4612305,16.1230469 Z M54.8393555,7.10644531 L56.3227539,7.10644531 L56.3227539,8.80859375 L57.6899414,8.80859375 L57.6899414,9.97753906 L56.3227539,9.97753906 L56.3227539,13.9423828 C56.3227539,14.5644531 56.5961914,14.8447266 57.1977539,14.8447266 C57.3481445,14.8447266 57.5874023,14.8310547 57.6831055,14.8105469 L57.6831055,15.9794922 C57.519043,16.0205078 57.190918,16.0478516 56.862793,16.0478516 C55.4067383,16.0478516 54.8393555,15.4941406 54.8393555,14.1064453 L54.8393555,9.97753906 L53.793457,9.97753906 L53.793457,8.80859375 L54.8393555,8.80859375 L54.8393555,7.10644531 Z M61.5368164,9.86816406 C60.5045898,9.86816406 59.7799805,10.6542969 59.7047851,11.7412109 L63.3004883,11.7412109 C63.2663086,10.640625 62.569043,9.86816406 61.5368164,9.86816406 Z M63.2936523,13.8876953 L64.6950195,13.8876953 C64.4899414,15.2001953 63.2458008,16.1367188 61.5983398,16.1367188 C59.4860351,16.1367188 58.2077148,14.7080078 58.2077148,12.4384766 C58.2077148,10.1826172 59.506543,8.67871094 61.5368164,8.67871094 C63.5329101,8.67871094 64.7770508,10.0869141 64.7770508,12.2675781 L64.7770508,12.7734375 L59.6979492,12.7734375 L59.6979492,12.8623047 C59.6979492,14.1132812 60.4499023,14.9404297 61.6325195,14.9404297 C62.4733398,14.9404297 63.0954101,14.5166016 63.2936523,13.8876953 Z" id="duplicate" fill="#000000" fill-rule="nonzero"></path>
        </g>
    </g>
</svg>