<?xml version="1.0" encoding="UTF-8"?>
<svg width="128px" height="24px" viewBox="0 0 128 24" version="1.1" xmlns="http://www.w3.org/2000/svg" xmlns:xlink="http://www.w3.org/1999/xlink">
    <!-- Generator: Sketch 54.1 (76490) - https://sketchapp.com -->
    <title>label-question</title>
    <desc>Created with Sketch.</desc>
    <g id="question" stroke="none" stroke-width="1" fill="none" fill-rule="evenodd">
        <g id="Label">
            <rect id="Background" fill="#9013FE" x="0" y="0" width="72" height="24" rx="12"></rect>
            <path d="M13.9953125,8.69238281 C15.034375,8.69238281 15.8546875,9.21875 16.2785156,10.0458984 L16.3126953,10.0458984 L16.3126953,8.80859375 L17.7482422,8.80859375 L17.7482422,18.3789062 L16.2648438,18.3789062 L16.2648438,14.7900391 L16.2375,14.7900391 C15.8273438,15.5966797 14.9865234,16.1230469 13.9611328,16.1230469 C12.1564453,16.1230469 10.9738281,14.6738281 10.9738281,12.4042969 C10.9738281,10.1347656 12.1564453,8.69238281 13.9953125,8.69238281 Z M14.3576172,14.8720703 C15.4923828,14.8720703 16.2716797,13.9013672 16.2716797,12.4042969 C16.2716797,10.9140625 15.4923828,9.93652344 14.3576172,9.93652344 C13.2023438,9.93652344 12.4845703,10.8798828 12.4845703,12.4042969 C12.4845703,13.9287109 13.2023438,14.8720703 14.3576172,14.8720703 Z M25.1703125,8.80859375 L25.1703125,16 L23.7552734,16 L23.7552734,14.7832031 L23.7210938,14.7832031 C23.3246094,15.6445312 22.5931641,16.1298828 21.4925781,16.1298828 C19.9271484,16.1298828 18.9701172,15.1113281 18.9701172,13.4638672 L18.9701172,8.80859375 L20.4466797,8.80859375 L20.4466797,13.1767578 C20.4466797,14.2705078 20.9662109,14.8583984 21.9847656,14.8583984 C23.0511719,14.8583984 23.69375,14.1201172 23.69375,12.9990234 L23.69375,8.80859375 L25.1703125,8.80859375 Z M29.4341797,9.86816406 C28.4019531,9.86816406 27.6773438,10.6542969 27.6021484,11.7412109 L31.1978516,11.7412109 C31.1636719,10.640625 30.4664063,9.86816406 29.4341797,9.86816406 Z M31.1910156,13.8876953 L32.5923828,13.8876953 C32.3873047,15.2001953 31.1431641,16.1367188 29.4957031,16.1367188 C27.3833984,16.1367188 26.1050781,14.7080078 26.1050781,12.4384766 C26.1050781,10.1826172 27.4039063,8.67871094 29.4341797,8.67871094 C31.4302734,8.67871094 32.6744141,10.0869141 32.6744141,12.2675781 L32.6744141,12.7734375 L27.5953125,12.7734375 L27.5953125,12.8623047 C27.5953125,14.1132812 28.3472656,14.9404297 29.5298828,14.9404297 C30.3707031,14.9404297 30.9927734,14.5166016 31.1910156,13.8876953 Z M33.4861328,10.8457031 C33.4861328,9.56054688 34.6072266,8.67871094 36.2615234,8.67871094 C37.9363281,8.67871094 39.0232422,9.60839844 39.0710938,10.9345703 L37.6833984,10.9345703 C37.6013672,10.2373047 37.0886719,9.79980469 36.2615234,9.79980469 C35.4617188,9.79980469 34.9285156,10.1894531 34.9285156,10.7636719 C34.9285156,11.2148438 35.2566406,11.5224609 36.0359375,11.7001953 L37.2048828,11.9667969 C38.6746094,12.3085938 39.2351563,12.8828125 39.2351563,13.921875 C39.2351563,15.234375 38.0115234,16.1367188 36.3162109,16.1367188 C34.5183594,16.1367188 33.4382813,15.2548828 33.3015625,13.8876953 L34.7644531,13.8876953 C34.9011719,14.6396484 35.4138672,15.0087891 36.3162109,15.0087891 C37.2048828,15.0087891 37.7517578,14.6396484 37.7517578,14.0517578 C37.7517578,13.5869141 37.4851563,13.3134766 36.6990234,13.1357422 L35.5300781,12.8623047 C34.1628906,12.5478516 33.4861328,11.8916016 33.4861328,10.8457031 Z M40.6074219,7.10644531 L42.0908203,7.10644531 L42.0908203,8.80859375 L43.4580078,8.80859375 L43.4580078,9.97753906 L42.0908203,9.97753906 L42.0908203,13.9423828 C42.0908203,14.5644531 42.3642578,14.8447266 42.9658203,14.8447266 C43.1162109,14.8447266 43.3554688,14.8310547 43.4511719,14.8105469 L43.4511719,15.9794922 C43.2871094,16.0205078 42.9589844,16.0478516 42.6308594,16.0478516 C41.1748047,16.0478516 40.6074219,15.4941406 40.6074219,14.1064453 L40.6074219,9.97753906 L39.5615234,9.97753906 L39.5615234,8.80859375 L40.6074219,8.80859375 L40.6074219,7.10644531 Z M44.5158203,16 L44.5158203,8.80859375 L45.9923828,8.80859375 L45.9923828,16 L44.5158203,16 Z M45.2541016,7.64648438 C44.7824219,7.64648438 44.3996094,7.26367188 44.3996094,6.79882812 C44.3996094,6.32714844 44.7824219,5.95117188 45.2541016,5.95117188 C45.7257812,5.95117188 46.1017578,6.32714844 46.1017578,6.79882812 C46.1017578,7.26367188 45.7257812,7.64648438 45.2541016,7.64648438 Z M50.3929687,16.1367188 C48.3353516,16.1367188 46.9818359,14.7216797 46.9818359,12.4042969 C46.9818359,10.09375 48.3421875,8.67871094 50.3929687,8.67871094 C52.44375,8.67871094 53.8041016,10.09375 53.8041016,12.4042969 C53.8041016,14.7216797 52.4505859,16.1367188 50.3929687,16.1367188 Z M50.3929687,14.9199219 C51.5550781,14.9199219 52.3001953,14.0039062 52.3001953,12.4042969 C52.3001953,10.8115234 51.5482422,9.89550781 50.3929687,9.89550781 C49.2376953,9.89550781 48.4857422,10.8115234 48.4857422,12.4042969 C48.4857422,14.0039062 49.2376953,14.9199219 50.3929687,14.9199219 Z M54.7457031,16 L54.7457031,8.80859375 L56.1539062,8.80859375 L56.1539062,10.0117188 L56.1880859,10.0117188 C56.5777344,9.19140625 57.3433594,8.68554688 58.4507812,8.68554688 C60.0367187,8.68554688 60.9458984,9.69726562 60.9458984,11.3447266 L60.9458984,16 L59.4625,16 L59.4625,11.6318359 C59.4625,10.5517578 58.9566406,9.95703125 57.93125,9.95703125 C56.8921875,9.95703125 56.2222656,10.6953125 56.2222656,11.8095703 L56.2222656,16 L54.7457031,16 Z" id="question" fill="#FFFFFF" fill-rule="nonzero"></path>
        </g>
    </g>
</svg>