<?xml version="1.0" encoding="UTF-8"?>
<svg width="128px" height="24px" viewBox="0 0 128 24" version="1.1" xmlns="http://www.w3.org/2000/svg" xmlns:xlink="http://www.w3.org/1999/xlink">
    <!-- Generator: Sketch 54.1 (76490) - https://sketchapp.com -->
    <title>label-help-wanted</title>
    <desc>Created with Sketch.</desc>
    <g id="help-wanted" stroke="none" stroke-width="1" fill="none" fill-rule="evenodd">
        <g id="Label">
            <rect id="Background" fill="#008672" x="0" y="0" width="94" height="24" rx="12"></rect>
            <path d="M11.9994141,16 L11.9994141,6.13574219 L13.4623047,6.13574219 L13.4623047,10.0117188 L13.4964844,10.0117188 C13.8929688,9.17089844 14.6791016,8.68554688 15.7728516,8.68554688 C17.3519531,8.68554688 18.2953125,9.73828125 18.2953125,11.3652344 L18.2953125,16 L16.8119141,16 L16.8119141,11.6523438 C16.8119141,10.5927734 16.278711,9.95703125 15.2396485,9.95703125 C14.1458985,9.95703125 13.4759766,10.7089844 13.4759766,11.84375 L13.4759766,16 L11.9994141,16 Z M22.525,9.86816406 C21.4927735,9.86816406 20.7681641,10.6542969 20.6929688,11.7412109 L24.2886719,11.7412109 C24.2544922,10.640625 23.5572266,9.86816406 22.525,9.86816406 Z M24.281836,13.8876953 L25.6832031,13.8876953 C25.478125,15.2001953 24.2339844,16.1367188 22.5865235,16.1367188 C20.4742188,16.1367188 19.1958985,14.7080078 19.1958985,12.4384766 C19.1958985,10.1826172 20.4947266,8.67871094 22.525,8.67871094 C24.5210938,8.67871094 25.7652344,10.0869141 25.7652344,12.2675781 L25.7652344,12.7734375 L20.6861328,12.7734375 L20.6861328,12.8623047 C20.6861328,14.1132812 21.438086,14.9404297 22.6207031,14.9404297 C23.4615235,14.9404297 24.0835938,14.5166016 24.281836,13.8876953 Z M26.7615234,16 L26.7615234,6.13574219 L28.2380859,6.13574219 L28.2380859,16 L26.7615234,16 Z M33.3017578,8.69238281 C35.1269531,8.69238281 36.3300781,10.1279297 36.3300781,12.4042969 C36.3300781,14.6806641 35.1337891,16.1230469 33.3291016,16.1230469 C32.296875,16.1230469 31.4765625,15.6171875 31.0664063,14.8173828 L31.0322266,14.8173828 L31.0322266,18.3789062 L29.5556641,18.3789062 L29.5556641,8.80859375 L30.984375,8.80859375 L30.984375,10.0458984 L31.0117188,10.0458984 C31.4355469,9.21875 32.2626953,8.69238281 33.3017578,8.69238281 Z M32.9121094,14.8720703 C34.0810547,14.8720703 34.8125,13.9150391 34.8125,12.4042969 C34.8125,10.9003906 34.0810547,9.93652344 32.9121094,9.93652344 C31.7841797,9.93652344 31.0253906,10.9208984 31.0253906,12.4042969 C31.0253906,13.9013672 31.7773438,14.8720703 32.9121094,14.8720703 Z M49.3900391,8.80859375 L47.4212891,16 L45.8832031,16 L44.3724609,10.6132812 L44.3382813,10.6132812 L42.8412109,16 L41.3167969,16 L39.3412109,8.80859375 L40.8177734,8.80859375 L42.1302734,14.46875 L42.1576172,14.46875 L43.6546875,8.80859375 L45.0765625,8.80859375 L46.5804688,14.46875 L46.6146484,14.46875 L47.9271484,8.80859375 L49.3900391,8.80859375 Z M52.4849609,14.9541016 C53.5171875,14.9541016 54.3238281,14.2431641 54.3238281,13.3066406 L54.3238281,12.7392578 L52.5533203,12.8486328 C51.6714844,12.9101562 51.1724609,13.2998047 51.1724609,13.9150391 C51.1724609,14.5439453 51.6919922,14.9541016 52.4849609,14.9541016 Z M52.0748047,16.1230469 C50.6666016,16.1230469 49.6822266,15.2480469 49.6822266,13.9560547 C49.6822266,12.6982422 50.6460937,11.9257812 52.3550781,11.8300781 L54.3238281,11.7138672 L54.3238281,11.1601562 C54.3238281,10.3603516 53.7837891,9.88183594 52.8814453,9.88183594 C52.0269531,9.88183594 51.49375,10.2919922 51.3638672,10.9345703 L49.9693359,10.9345703 C50.0513672,9.63574219 51.1587891,8.67871094 52.9361328,8.67871094 C54.6792969,8.67871094 55.7935547,9.6015625 55.7935547,11.0439453 L55.7935547,16 L54.3785156,16 L54.3785156,14.8173828 L54.3443359,14.8173828 C53.9273437,15.6171875 53.0181641,16.1230469 52.0748047,16.1230469 Z M57.0222656,16 L57.0222656,8.80859375 L58.4304687,8.80859375 L58.4304687,10.0117188 L58.4646484,10.0117188 C58.8542969,9.19140625 59.6199219,8.68554688 60.7273437,8.68554688 C62.3132812,8.68554688 63.2224609,9.69726562 63.2224609,11.3447266 L63.2224609,16 L61.7390625,16 L61.7390625,11.6318359 C61.7390625,10.5517578 61.2332031,9.95703125 60.2078125,9.95703125 C59.16875,9.95703125 58.4988281,10.6953125 58.4988281,11.8095703 L58.4988281,16 L57.0222656,16 Z M64.875,7.10644531 L66.3583984,7.10644531 L66.3583984,8.80859375 L67.7255859,8.80859375 L67.7255859,9.97753906 L66.3583984,9.97753906 L66.3583984,13.9423828 C66.3583984,14.5644531 66.6318359,14.8447266 67.2333984,14.8447266 C67.3837891,14.8447266 67.6230469,14.8310547 67.71875,14.8105469 L67.71875,15.9794922 C67.5546875,16.0205078 67.2265625,16.0478516 66.8984375,16.0478516 C65.4423828,16.0478516 64.875,15.4941406 64.875,14.1064453 L64.875,9.97753906 L63.8291016,9.97753906 L63.8291016,8.80859375 L64.875,8.80859375 L64.875,7.10644531 Z M71.5724609,9.86816406 C70.5402344,9.86816406 69.815625,10.6542969 69.7404297,11.7412109 L73.3361328,11.7412109 C73.3019531,10.640625 72.6046875,9.86816406 71.5724609,9.86816406 Z M73.3292969,13.8876953 L74.7306641,13.8876953 C74.5255859,15.2001953 73.2814453,16.1367188 71.6339844,16.1367188 C69.5216797,16.1367188 68.2433594,14.7080078 68.2433594,12.4384766 C68.2433594,10.1826172 69.5421875,8.67871094 71.5724609,8.67871094 C73.5685547,8.67871094 74.8126953,10.0869141 74.8126953,12.2675781 L74.8126953,12.7734375 L69.7335937,12.7734375 L69.7335937,12.8623047 C69.7335937,14.1132812 70.4855469,14.9404297 71.6681641,14.9404297 C72.5089844,14.9404297 73.1310547,14.5166016 73.3292969,13.8876953 Z M78.4544922,16.1230469 C76.6361328,16.1230469 75.4330078,14.6738281 75.4330078,12.4042969 C75.4330078,10.1347656 76.6361328,8.69238281 78.4408203,8.69238281 C79.4730469,8.69238281 80.2933594,9.21191406 80.6966797,10.0048828 L80.7240234,10.0048828 L80.7240234,6.13574219 L82.2074219,6.13574219 L82.2074219,16 L80.771875,16 L80.771875,14.7763672 L80.7445312,14.7763672 C80.3207031,15.5966797 79.5003906,16.1230469 78.4544922,16.1230469 Z M78.8441406,9.93652344 C77.6751953,9.93652344 76.94375,10.8935547 76.94375,12.4042969 C76.94375,13.921875 77.6751953,14.8720703 78.8441406,14.8720703 C79.9789062,14.8720703 80.7376953,13.9082031 80.7376953,12.4042969 C80.7376953,10.9140625 79.9789062,9.93652344 78.8441406,9.93652344 Z" id="helpwanted" fill="#FFFFFF" fill-rule="nonzero"></path>
        </g>
    </g>
</svg>