<?xml version="1.0" encoding="UTF-8"?>
<svg width="128px" height="24px" viewBox="0 0 128 24" version="1.1" xmlns="http://www.w3.org/2000/svg" xmlns:xlink="http://www.w3.org/1999/xlink">
    <!-- Generator: Sketch 54.1 (76490) - https://sketchapp.com -->
    <title>label-style</title>
    <desc>Created with Sketch.</desc>
    <g id="style" stroke="none" stroke-width="1" fill="none" fill-rule="evenodd">
        <g id="Label">
            <rect id="Background" fill="#FE0154" x="0" y="0" width="50" height="24" rx="12"></rect>
            <path d="M11.7084961,10.8457031 C11.7084961,9.56054688 12.8295899,8.67871094 14.4838867,8.67871094 C16.1586914,8.67871094 17.2456055,9.60839844 17.293457,10.9345703 L15.9057617,10.9345703 C15.8237305,10.2373047 15.3110352,9.79980469 14.4838867,9.79980469 C13.684082,9.79980469 13.1508789,10.1894531 13.1508789,10.7636719 C13.1508789,11.2148438 13.4790039,11.5224609 14.2583008,11.7001953 L15.4272461,11.9667969 C16.8969727,12.3085938 17.4575195,12.8828125 17.4575195,13.921875 C17.4575195,15.234375 16.2338867,16.1367188 14.5385742,16.1367188 C12.7407227,16.1367188 11.6606445,15.2548828 11.5239258,13.8876953 L12.9868164,13.8876953 C13.1235352,14.6396484 13.6362305,15.0087891 14.5385742,15.0087891 C15.4272461,15.0087891 15.9741211,14.6396484 15.9741211,14.0517578 C15.9741211,13.5869141 15.7075195,13.3134766 14.9213867,13.1357422 L13.7524414,12.8623047 C12.3852539,12.5478516 11.7084961,11.8916016 11.7084961,10.8457031 Z M18.8297852,7.10644531 L20.3131836,7.10644531 L20.3131836,8.80859375 L21.6803711,8.80859375 L21.6803711,9.97753906 L20.3131836,9.97753906 L20.3131836,13.9423828 C20.3131836,14.5644531 20.5866211,14.8447266 21.1881836,14.8447266 C21.3385742,14.8447266 21.577832,14.8310547 21.6735352,14.8105469 L21.6735352,15.9794922 C21.5094727,16.0205078 21.1813477,16.0478516 20.8532227,16.0478516 C19.397168,16.0478516 18.8297852,15.4941406 18.8297852,14.1064453 L18.8297852,9.97753906 L17.7838867,9.97753906 L17.7838867,8.80859375 L18.8297852,8.80859375 L18.8297852,7.10644531 Z M23.4081055,18.6796875 C23.2850586,18.6796875 22.915918,18.6660156 22.806543,18.6455078 L22.806543,17.4492188 C22.915918,17.4765625 23.1620117,17.4765625 23.2850586,17.4765625 C23.9686523,17.4765625 24.337793,17.1894531 24.5633789,16.4511719 C24.5633789,16.4375 24.6932617,16.0136719 24.6932617,16.0068359 L22.0956055,8.80859375 L23.6952148,8.80859375 L25.5135742,14.6601562 L25.540918,14.6601562 L27.3592773,8.80859375 L28.9178711,8.80859375 L26.2245117,16.3759766 C25.6092773,18.1191406 24.8983398,18.6796875 23.4081055,18.6796875 Z M29.6407227,16 L29.6407227,6.13574219 L31.1172852,6.13574219 L31.1172852,16 L29.6407227,16 Z M35.4426758,9.86816406 C34.4104492,9.86816406 33.6858398,10.6542969 33.6106445,11.7412109 L37.2063477,11.7412109 C37.172168,10.640625 36.4749023,9.86816406 35.4426758,9.86816406 Z M37.1995117,13.8876953 L38.6008789,13.8876953 C38.3958008,15.2001953 37.1516602,16.1367188 35.5041992,16.1367188 C33.3918945,16.1367188 32.1135742,14.7080078 32.1135742,12.4384766 C32.1135742,10.1826172 33.4124023,8.67871094 35.4426758,8.67871094 C37.4387695,8.67871094 38.6829102,10.0869141 38.6829102,12.2675781 L38.6829102,12.7734375 L33.6038086,12.7734375 L33.6038086,12.8623047 C33.6038086,14.1132812 34.3557617,14.9404297 35.5383789,14.9404297 C36.3791992,14.9404297 37.0012695,14.5166016 37.1995117,13.8876953 Z" id="style" fill="#000000" fill-rule="nonzero"></path>
        </g>
    </g>
</svg>