<?xml version="1.0" encoding="UTF-8"?>
<svg width="128px" height="24px" viewBox="0 0 128 24" version="1.1" xmlns="http://www.w3.org/2000/svg" xmlns:xlink="http://www.w3.org/1999/xlink">
    <!-- Generator: Sketch 54.1 (76490) - https://sketchapp.com -->
    <title>label-refactor</title>
    <desc>Created with Sketch.</desc>
    <g id="refactor" stroke="none" stroke-width="1" fill="none" fill-rule="evenodd">
        <g id="Label">
            <rect id="Background" fill="#B07D50" x="0" y="0" width="68" height="24" rx="12"></rect>
            <path d="M12.1149414,16 L12.1149414,8.80859375 L13.5231445,8.80859375 L13.5231445,10.0322266 L13.5573242,10.0322266 C13.796582,9.19140625 14.4391602,8.69238281 15.2868164,8.69238281 C15.4987305,8.69238281 15.6833008,8.7265625 15.7926758,8.74707031 L15.7926758,10.1210938 C15.6764649,10.0732422 15.4166992,10.0390625 15.1295899,10.0390625 C14.1793945,10.0390625 13.5915039,10.6748047 13.5915039,11.6933594 L13.5915039,16 L12.1149414,16 Z M19.2088867,9.86816406 C18.1766602,9.86816406 17.4520508,10.6542969 17.3768555,11.7412109 L20.9725586,11.7412109 C20.9383789,10.640625 20.2411133,9.86816406 19.2088867,9.86816406 Z M20.9657227,13.8876953 L22.3670899,13.8876953 C22.1620117,15.2001953 20.9178711,16.1367188 19.2704102,16.1367188 C17.1581055,16.1367188 15.8797852,14.7080078 15.8797852,12.4384766 C15.8797852,10.1826172 17.1786133,8.67871094 19.2088867,8.67871094 C21.2049805,8.67871094 22.4491211,10.0869141 22.4491211,12.2675781 L22.4491211,12.7734375 L17.3700195,12.7734375 L17.3700195,12.8623047 C17.3700195,14.1132812 18.1219727,14.9404297 19.3045899,14.9404297 C20.1454102,14.9404297 20.7674805,14.5166016 20.9657227,13.8876953 Z M23.8213867,16 L23.8213867,9.97753906 L22.8301758,9.97753906 L22.8301758,8.82226562 L23.8213867,8.82226562 L23.8213867,8.11816406 C23.8213867,6.72363281 24.4776367,6.06738281 25.9405273,6.06738281 C26.2413086,6.06738281 26.5762695,6.1015625 26.7676758,6.13574219 L26.7676758,7.22949219 C26.6241211,7.20214844 26.4258789,7.18847656 26.2276367,7.18847656 C25.5850586,7.18847656 25.2842773,7.50976562 25.2842773,8.14550781 L25.2842773,8.82226562 L26.740332,8.82226562 L26.740332,9.97753906 L25.3047852,9.97753906 L25.3047852,16 L23.8213867,16 Z M29.821582,14.9541016 C30.8538086,14.9541016 31.6604492,14.2431641 31.6604492,13.3066406 L31.6604492,12.7392578 L29.8899414,12.8486328 C29.0081055,12.9101562 28.509082,13.2998047 28.509082,13.9150391 C28.509082,14.5439453 29.0286133,14.9541016 29.821582,14.9541016 Z M29.4114258,16.1230469 C28.0032227,16.1230469 27.0188477,15.2480469 27.0188477,13.9560547 C27.0188477,12.6982422 27.9827148,11.9257812 29.6916992,11.8300781 L31.6604492,11.7138672 L31.6604492,11.1601562 C31.6604492,10.3603516 31.1204102,9.88183594 30.2180664,9.88183594 C29.3635742,9.88183594 28.8303711,10.2919922 28.7004883,10.9345703 L27.305957,10.9345703 C27.3879883,9.63574219 28.4954102,8.67871094 30.2727539,8.67871094 C32.015918,8.67871094 33.1301758,9.6015625 33.1301758,11.0439453 L33.1301758,16 L31.7151367,16 L31.7151367,14.8173828 L31.680957,14.8173828 C31.2639648,15.6171875 30.3547852,16.1230469 29.4114258,16.1230469 Z M40.5317383,11.2832031 L39.1235352,11.2832031 C38.9731445,10.5175781 38.3989258,9.90917969 37.4350586,9.90917969 C36.293457,9.90917969 35.5415039,10.859375 35.5415039,12.4042969 C35.5415039,13.9833984 36.300293,14.8994141 37.4487305,14.8994141 C38.3579102,14.8994141 38.9526367,14.4003906 39.1235352,13.5664062 L40.5454102,13.5664062 C40.3881836,15.0976562 39.1645508,16.1367188 37.4350586,16.1367188 C35.3774414,16.1367188 34.0375977,14.7285156 34.0375977,12.4042969 C34.0375977,10.1210938 35.3774414,8.67871094 37.4213867,8.67871094 C39.2739258,8.67871094 40.4018555,9.86816406 40.5317383,11.2832031 Z M41.8219727,7.10644531 L43.3053711,7.10644531 L43.3053711,8.80859375 L44.6725586,8.80859375 L44.6725586,9.97753906 L43.3053711,9.97753906 L43.3053711,13.9423828 C43.3053711,14.5644531 43.5788086,14.8447266 44.1803711,14.8447266 C44.3307617,14.8447266 44.5700195,14.8310547 44.6657227,14.8105469 L44.6657227,15.9794922 C44.5016602,16.0205078 44.1735352,16.0478516 43.8454102,16.0478516 C42.3893555,16.0478516 41.8219727,15.4941406 41.8219727,14.1064453 L41.8219727,9.97753906 L40.7760742,9.97753906 L40.7760742,8.80859375 L41.8219727,8.80859375 L41.8219727,7.10644531 Z M48.6014648,16.1367188 C46.5438477,16.1367188 45.190332,14.7216797 45.190332,12.4042969 C45.190332,10.09375 46.5506836,8.67871094 48.6014648,8.67871094 C50.6522461,8.67871094 52.0125977,10.09375 52.0125977,12.4042969 C52.0125977,14.7216797 50.659082,16.1367188 48.6014648,16.1367188 Z M48.6014648,14.9199219 C49.7635742,14.9199219 50.5086914,14.0039062 50.5086914,12.4042969 C50.5086914,10.8115234 49.7567383,9.89550781 48.6014648,9.89550781 C47.4461914,9.89550781 46.6942383,10.8115234 46.6942383,12.4042969 C46.6942383,14.0039062 47.4461914,14.9199219 48.6014648,14.9199219 Z M52.9541992,16 L52.9541992,8.80859375 L54.3624023,8.80859375 L54.3624023,10.0322266 L54.396582,10.0322266 C54.6358398,9.19140625 55.278418,8.69238281 56.1260742,8.69238281 C56.3379883,8.69238281 56.5225586,8.7265625 56.6319336,8.74707031 L56.6319336,10.1210938 C56.5157226,10.0732422 56.255957,10.0390625 55.9688476,10.0390625 C55.0186523,10.0390625 54.4307617,10.6748047 54.4307617,11.6933594 L54.4307617,16 L52.9541992,16 Z" id="refactor" fill="#000000" fill-rule="nonzero"></path>
        </g>
    </g>
</svg>