<?xml version="1.0" encoding="UTF-8"?>
<svg width="128px" height="24px" viewBox="0 0 128 24" version="1.1" xmlns="http://www.w3.org/2000/svg" xmlns:xlink="http://www.w3.org/1999/xlink">
    <!-- Generator: Sketch 54.1 (76490) - https://sketchapp.com -->
    <title>label-bug</title>
    <desc>Created with Sketch.</desc>
    <g id="bug" stroke="none" stroke-width="1" fill="none" fill-rule="evenodd">
        <g id="Label">
            <rect id="Background" fill="#D73A4A" x="0" y="0" width="44" height="24" rx="12"></rect>
            <path d="M15.1051758,16.1230469 C14.0524414,16.1230469 13.2389648,15.6103516 12.7946289,14.7763672 L12.7672852,14.7763672 L12.7672852,16 L11.3317383,16 L11.3317383,6.13574219 L12.8083008,6.13574219 L12.8083008,10.0322266 L12.8424805,10.0322266 C13.2731445,9.19824219 14.093457,8.69238281 15.1120117,8.69238281 C16.9235352,8.69238281 18.1061523,10.1279297 18.1061523,12.4042969 C18.1061523,14.6875 16.9303711,16.1230469 15.1051758,16.1230469 Z M14.7086914,9.93652344 C13.5875977,9.93652344 12.8014648,10.9208984 12.8014648,12.4042969 C12.8014648,13.9013672 13.5875977,14.8720703 14.7086914,14.8720703 C15.8708008,14.8720703 16.5885742,13.9287109 16.5885742,12.4042969 C16.5885742,10.8935547 15.8708008,9.93652344 14.7086914,9.93652344 Z M25.2206055,8.80859375 L25.2206055,16 L23.8055664,16 L23.8055664,14.7832031 L23.7713867,14.7832031 C23.3749023,15.6445312 22.643457,16.1298828 21.5428711,16.1298828 C19.9774414,16.1298828 19.0204102,15.1113281 19.0204102,13.4638672 L19.0204102,8.80859375 L20.4969727,8.80859375 L20.4969727,13.1767578 C20.4969727,14.2705078 21.0165039,14.8583984 22.0350586,14.8583984 C23.1014648,14.8583984 23.744043,14.1201172 23.744043,12.9990234 L23.744043,8.80859375 L25.2206055,8.80859375 Z M29.5391602,14.8037109 C30.6944336,14.8037109 31.4532227,13.8671875 31.4532227,12.3837891 C31.4532227,10.9072266 30.6944336,9.93652344 29.5391602,9.93652344 C28.4043945,9.93652344 27.6661133,10.8867188 27.6661133,12.3837891 C27.6661133,13.8876953 28.4043945,14.8037109 29.5391602,14.8037109 Z M29.552832,18.7070312 C27.8575195,18.7070312 26.599707,17.8046875 26.4151367,16.5605469 L27.8985352,16.5605469 C28.1104492,17.1621094 28.7666992,17.5585938 29.6075195,17.5585938 C30.762793,17.5585938 31.4463867,16.9023438 31.4463867,15.9179688 L31.4463867,14.7353516 L31.419043,14.7353516 C31.0157227,15.5146484 30.1680664,16.0273438 29.1426758,16.0273438 C27.3379883,16.0273438 26.1553711,14.6191406 26.1553711,12.3769531 C26.1553711,10.1142578 27.3311523,8.69238281 29.1768555,8.69238281 C30.1954102,8.69238281 31.0293945,9.20507812 31.4668945,10.0390625 L31.4942383,10.0390625 L31.4942383,8.80859375 L32.9297852,8.80859375 L32.9297852,15.8701172 C32.9297852,17.5859375 31.6036133,18.7070312 29.552832,18.7070312 Z" id="bug" fill="#FFFFFF" fill-rule="nonzero"></path>
        </g>
    </g>
</svg>