<?xml version="1.0" encoding="UTF-8"?>
<svg width="128px" height="24px" viewBox="0 0 128 24" version="1.1" xmlns="http://www.w3.org/2000/svg" xmlns:xlink="http://www.w3.org/1999/xlink">
    <!-- Generator: Sketch 54.1 (76490) - https://sketchapp.com -->
    <title>label-chore</title>
    <desc>Created with Sketch.</desc>
    <g id="chore" stroke="none" stroke-width="1" fill="none" fill-rule="evenodd">
        <g id="Label">
            <rect id="Background" fill="#24292F" x="0" y="0" width="55" height="24" rx="12"></rect>
            <path d="M17.7426758,11.2832031 L16.3344727,11.2832031 C16.184082,10.5175781 15.6098633,9.90917969 14.6459961,9.90917969 C13.5043945,9.90917969 12.7524414,10.859375 12.7524414,12.4042969 C12.7524414,13.9833984 13.5112305,14.8994141 14.659668,14.8994141 C15.5688477,14.8994141 16.1635742,14.4003906 16.3344727,13.5664062 L17.7563477,13.5664062 C17.5991211,15.0976562 16.3754883,16.1367188 14.6459961,16.1367188 C12.5883789,16.1367188 11.2485352,14.7285156 11.2485352,12.4042969 C11.2485352,10.1210938 12.5883789,8.67871094 14.6323242,8.67871094 C16.4848633,8.67871094 17.612793,9.86816406 17.7426758,11.2832031 Z M18.6569336,16 L18.6569336,6.13574219 L20.1198242,6.13574219 L20.1198242,10.0117188 L20.1540039,10.0117188 C20.5504883,9.17089844 21.3366211,8.68554688 22.4303711,8.68554688 C24.0094727,8.68554688 24.952832,9.73828125 24.952832,11.3652344 L24.952832,16 L23.4694336,16 L23.4694336,11.6523438 C23.4694336,10.5927734 22.9362305,9.95703125 21.897168,9.95703125 C20.803418,9.95703125 20.1334961,10.7089844 20.1334961,11.84375 L20.1334961,16 L18.6569336,16 Z M29.2645508,16.1367188 C27.2069336,16.1367188 25.853418,14.7216797 25.853418,12.4042969 C25.853418,10.09375 27.2137695,8.67871094 29.2645508,8.67871094 C31.315332,8.67871094 32.6756836,10.09375 32.6756836,12.4042969 C32.6756836,14.7216797 31.322168,16.1367188 29.2645508,16.1367188 Z M29.2645508,14.9199219 C30.4266602,14.9199219 31.1717773,14.0039062 31.1717773,12.4042969 C31.1717773,10.8115234 30.4198242,9.89550781 29.2645508,9.89550781 C28.1092773,9.89550781 27.3573242,10.8115234 27.3573242,12.4042969 C27.3573242,14.0039062 28.1092773,14.9199219 29.2645508,14.9199219 Z M33.6172852,16 L33.6172852,8.80859375 L35.0254883,8.80859375 L35.0254883,10.0322266 L35.059668,10.0322266 C35.2989258,9.19140625 35.9415039,8.69238281 36.7891602,8.69238281 C37.0010742,8.69238281 37.1856445,8.7265625 37.2950195,8.74707031 L37.2950195,10.1210938 C37.1788086,10.0732422 36.919043,10.0390625 36.6319336,10.0390625 C35.6817383,10.0390625 35.0938477,10.6748047 35.0938477,11.6933594 L35.0938477,16 L33.6172852,16 Z M40.7112305,9.86816406 C39.6790039,9.86816406 38.9543945,10.6542969 38.8791992,11.7412109 L42.4749023,11.7412109 C42.4407227,10.640625 41.743457,9.86816406 40.7112305,9.86816406 Z M42.4680664,13.8876953 L43.8694336,13.8876953 C43.6643555,15.2001953 42.4202148,16.1367188 40.7727539,16.1367188 C38.6604492,16.1367188 37.3821289,14.7080078 37.3821289,12.4384766 C37.3821289,10.1826172 38.680957,8.67871094 40.7112305,8.67871094 C42.7073242,8.67871094 43.9514648,10.0869141 43.9514648,12.2675781 L43.9514648,12.7734375 L38.8723633,12.7734375 L38.8723633,12.8623047 C38.8723633,14.1132812 39.6243164,14.9404297 40.8069336,14.9404297 C41.6477539,14.9404297 42.2698242,14.5166016 42.4680664,13.8876953 Z" id="chore" fill="#FFFFFF" fill-rule="nonzero"></path>
        </g>
    </g>
</svg>