<?xml version="1.0" encoding="UTF-8"?>
<svg width="128px" height="24px" viewBox="0 0 128 24" version="1.1" xmlns="http://www.w3.org/2000/svg" xmlns:xlink="http://www.w3.org/1999/xlink">
    <!-- Generator: Sketch 54.1 (76490) - https://sketchapp.com -->
    <title>label-documentation</title>
    <desc>Created with Sketch.</desc>
    <g id="documentation" stroke="none" stroke-width="1" fill="none" fill-rule="evenodd">
        <g id="Label">
            <rect id="Background" fill="#3388FF" x="0" y="0" width="109" height="24" rx="12"></rect>
            <path d="M13.5094727,16.1230469 C11.6911133,16.1230469 10.4879883,14.6738281 10.4879883,12.4042969 C10.4879883,10.1347656 11.6911133,8.69238281 13.4958008,8.69238281 C14.5280274,8.69238281 15.3483399,9.21191406 15.7516602,10.0048828 L15.7790039,10.0048828 L15.7790039,6.13574219 L17.2624024,6.13574219 L17.2624024,16 L15.8268555,16 L15.8268555,14.7763672 L15.7995117,14.7763672 C15.3756836,15.5966797 14.5553711,16.1230469 13.5094727,16.1230469 Z M13.8991211,9.93652344 C12.7301758,9.93652344 11.9987305,10.8935547 11.9987305,12.4042969 C11.9987305,13.921875 12.7301758,14.8720703 13.8991211,14.8720703 C15.0338867,14.8720703 15.7926758,13.9082031 15.7926758,12.4042969 C15.7926758,10.9140625 15.0338867,9.93652344 13.8991211,9.93652344 Z M21.6629883,16.1367188 C19.6053711,16.1367188 18.2518555,14.7216797 18.2518555,12.4042969 C18.2518555,10.09375 19.612207,8.67871094 21.6629883,8.67871094 C23.7137695,8.67871094 25.0741211,10.09375 25.0741211,12.4042969 C25.0741211,14.7216797 23.7206055,16.1367188 21.6629883,16.1367188 Z M21.6629883,14.9199219 C22.8250977,14.9199219 23.5702149,14.0039062 23.5702149,12.4042969 C23.5702149,10.8115234 22.8182617,9.89550781 21.6629883,9.89550781 C20.5077149,9.89550781 19.7557617,10.8115234 19.7557617,12.4042969 C19.7557617,14.0039062 20.5077149,14.9199219 21.6629883,14.9199219 Z M32.1885742,11.2832031 L30.7803711,11.2832031 C30.6299805,10.5175781 30.0557617,9.90917969 29.0918945,9.90917969 C27.950293,9.90917969 27.1983399,10.859375 27.1983399,12.4042969 C27.1983399,13.9833984 27.9571289,14.8994141 29.1055664,14.8994141 C30.0147461,14.8994141 30.6094727,14.4003906 30.7803711,13.5664062 L32.2022461,13.5664062 C32.0450195,15.0976562 30.8213867,16.1367188 29.0918945,16.1367188 C27.0342774,16.1367188 25.6944336,14.7285156 25.6944336,12.4042969 C25.6944336,10.1210938 27.0342774,8.67871094 29.0782227,8.67871094 C30.9307617,8.67871094 32.0586914,9.86816406 32.1885742,11.2832031 Z M39.2141602,8.80859375 L39.2141602,16 L37.7991211,16 L37.7991211,14.7832031 L37.7649414,14.7832031 C37.368457,15.6445312 36.6370117,16.1298828 35.5364258,16.1298828 C33.9709961,16.1298828 33.0139649,15.1113281 33.0139649,13.4638672 L33.0139649,8.80859375 L34.4905274,8.80859375 L34.4905274,13.1767578 C34.4905274,14.2705078 35.0100586,14.8583984 36.0286133,14.8583984 C37.0950195,14.8583984 37.7375977,14.1201172 37.7375977,12.9990234 L37.7375977,8.80859375 L39.2141602,8.80859375 Z M40.4702149,16 L40.4702149,8.80859375 L41.878418,8.80859375 L41.878418,10.0185547 L41.9125977,10.0185547 C42.2338867,9.21875 42.9858399,8.68554688 43.956543,8.68554688 C44.9545899,8.68554688 45.6791992,9.19824219 45.9663086,10.09375 L46.0004883,10.09375 C46.3696289,9.21875 47.2172852,8.68554688 48.2426758,8.68554688 C49.6645508,8.68554688 50.5942383,9.62890625 50.5942383,11.0576172 L50.5942383,16 L49.1108399,16 L49.1108399,11.4130859 C49.1108399,10.4833984 48.6118164,9.95019531 47.7368164,9.95019531 C46.8618164,9.95019531 46.253418,10.5996094 46.253418,11.5087891 L46.253418,16 L44.8041992,16 L44.8041992,11.3037109 C44.8041992,10.4765625 44.277832,9.95019531 43.4438477,9.95019531 C42.5688477,9.95019531 41.9467774,10.6337891 41.9467774,11.5566406 L41.9467774,16 L40.4702149,16 Z M54.8239258,9.86816406 C53.7916992,9.86816406 53.0670898,10.6542969 52.9918945,11.7412109 L56.5875977,11.7412109 C56.553418,10.640625 55.8561523,9.86816406 54.8239258,9.86816406 Z M56.5807617,13.8876953 L57.9821289,13.8876953 C57.7770508,15.2001953 56.5329102,16.1367188 54.8854492,16.1367188 C52.7731445,16.1367188 51.4948242,14.7080078 51.4948242,12.4384766 C51.4948242,10.1826172 52.7936523,8.67871094 54.8239258,8.67871094 C56.8200195,8.67871094 58.0641602,10.0869141 58.0641602,12.2675781 L58.0641602,12.7734375 L52.9850586,12.7734375 L52.9850586,12.8623047 C52.9850586,14.1132812 53.7370117,14.9404297 54.9196289,14.9404297 C55.7604492,14.9404297 56.3825195,14.5166016 56.5807617,13.8876953 Z M59.0057617,16 L59.0057617,8.80859375 L60.4139648,8.80859375 L60.4139648,10.0117188 L60.4481445,10.0117188 C60.837793,9.19140625 61.603418,8.68554688 62.7108398,8.68554688 C64.2967773,8.68554688 65.205957,9.69726562 65.205957,11.3447266 L65.205957,16 L63.7225586,16 L63.7225586,11.6318359 C63.7225586,10.5517578 63.2166992,9.95703125 62.1913086,9.95703125 C61.1522461,9.95703125 60.4823242,10.6953125 60.4823242,11.8095703 L60.4823242,16 L59.0057617,16 Z M66.8584961,7.10644531 L68.3418945,7.10644531 L68.3418945,8.80859375 L69.709082,8.80859375 L69.709082,9.97753906 L68.3418945,9.97753906 L68.3418945,13.9423828 C68.3418945,14.5644531 68.615332,14.8447266 69.2168945,14.8447266 C69.3672852,14.8447266 69.606543,14.8310547 69.7022461,14.8105469 L69.7022461,15.9794922 C69.5381836,16.0205078 69.2100586,16.0478516 68.8819336,16.0478516 C67.4258789,16.0478516 66.8584961,15.4941406 66.8584961,14.1064453 L66.8584961,9.97753906 L65.8125977,9.97753906 L65.8125977,8.80859375 L66.8584961,8.80859375 L66.8584961,7.10644531 Z M73.125293,14.9541016 C74.1575195,14.9541016 74.9641602,14.2431641 74.9641602,13.3066406 L74.9641602,12.7392578 L73.1936523,12.8486328 C72.3118164,12.9101562 71.812793,13.2998047 71.812793,13.9150391 C71.812793,14.5439453 72.3323242,14.9541016 73.125293,14.9541016 Z M72.7151367,16.1230469 C71.3069336,16.1230469 70.3225586,15.2480469 70.3225586,13.9560547 C70.3225586,12.6982422 71.2864258,11.9257812 72.9954102,11.8300781 L74.9641602,11.7138672 L74.9641602,11.1601562 C74.9641602,10.3603516 74.4241211,9.88183594 73.5217773,9.88183594 C72.6672852,9.88183594 72.134082,10.2919922 72.0041992,10.9345703 L70.609668,10.9345703 C70.6916992,9.63574219 71.7991211,8.67871094 73.5764648,8.67871094 C75.3196289,8.67871094 76.4338867,9.6015625 76.4338867,11.0439453 L76.4338867,16 L75.0188477,16 L75.0188477,14.8173828 L74.984668,14.8173828 C74.5676758,15.6171875 73.6584961,16.1230469 72.7151367,16.1230469 Z M78.0932617,7.10644531 L79.5766601,7.10644531 L79.5766601,8.80859375 L80.9438476,8.80859375 L80.9438476,9.97753906 L79.5766601,9.97753906 L79.5766601,13.9423828 C79.5766601,14.5644531 79.8500976,14.8447266 80.4516601,14.8447266 C80.6020508,14.8447266 80.8413086,14.8310547 80.9370117,14.8105469 L80.9370117,15.9794922 C80.7729492,16.0205078 80.4448242,16.0478516 80.1166992,16.0478516 C78.6606445,16.0478516 78.0932617,15.4941406 78.0932617,14.1064453 L78.0932617,9.97753906 L77.0473633,9.97753906 L77.0473633,8.80859375 L78.0932617,8.80859375 L78.0932617,7.10644531 Z M82.0016601,16 L82.0016601,8.80859375 L83.4782226,8.80859375 L83.4782226,16 L82.0016601,16 Z M82.7399414,7.64648438 C82.2682617,7.64648438 81.8854492,7.26367188 81.8854492,6.79882812 C81.8854492,6.32714844 82.2682617,5.95117188 82.7399414,5.95117188 C83.2116211,5.95117188 83.5875976,6.32714844 83.5875976,6.79882812 C83.5875976,7.26367188 83.2116211,7.64648438 82.7399414,7.64648438 Z M87.8788086,16.1367188 C85.8211914,16.1367188 84.4676758,14.7216797 84.4676758,12.4042969 C84.4676758,10.09375 85.8280273,8.67871094 87.8788086,8.67871094 C89.9295898,8.67871094 91.2899414,10.09375 91.2899414,12.4042969 C91.2899414,14.7216797 89.9364258,16.1367188 87.8788086,16.1367188 Z M87.8788086,14.9199219 C89.040918,14.9199219 89.7860351,14.0039062 89.7860351,12.4042969 C89.7860351,10.8115234 89.034082,9.89550781 87.8788086,9.89550781 C86.7235351,9.89550781 85.971582,10.8115234 85.971582,12.4042969 C85.971582,14.0039062 86.7235351,14.9199219 87.8788086,14.9199219 Z M92.231543,16 L92.231543,8.80859375 L93.6397461,8.80859375 L93.6397461,10.0117188 L93.6739258,10.0117188 C94.0635742,9.19140625 94.8291992,8.68554688 95.9366211,8.68554688 C97.5225586,8.68554688 98.4317383,9.69726562 98.4317383,11.3447266 L98.4317383,16 L96.9483398,16 L96.9483398,11.6318359 C96.9483398,10.5517578 96.4424805,9.95703125 95.4170898,9.95703125 C94.3780273,9.95703125 93.7081055,10.6953125 93.7081055,11.8095703 L93.7081055,16 L92.231543,16 Z" id="documentation" fill="#000000" fill-rule="nonzero"></path>
        </g>
    </g>
</svg>