<?xml version="1.0" encoding="UTF-8"?>
<svg width="128px" height="24px" viewBox="0 0 128 24" version="1.1" xmlns="http://www.w3.org/2000/svg" xmlns:xlink="http://www.w3.org/1999/xlink">
    <!-- Generator: Sketch 54.1 (76490) - https://sketchapp.com -->
    <title>label-wontfix</title>
    <desc>Created with Sketch.</desc>
    <g id="wontfix" stroke="none" stroke-width="1" fill="none" fill-rule="evenodd">
        <g id="Label">
            <rect id="Background" stroke="#BFBFBF" fill="#FFFFFF" x="0.5" y="0.5" width="64" height="23" rx="11.5"></rect>
            <path d="M21.1584961,8.80859375 L19.1897461,16 L17.6516602,16 L16.140918,10.6132812 L16.1067383,10.6132812 L14.609668,16 L13.0852539,16 L11.109668,8.80859375 L12.5862305,8.80859375 L13.8987305,14.46875 L13.9260742,14.46875 L15.4231445,8.80859375 L16.8450195,8.80859375 L18.3489258,14.46875 L18.3831055,14.46875 L19.6956055,8.80859375 L21.1584961,8.80859375 Z M24.9165039,16.1367188 C22.8588867,16.1367188 21.5053711,14.7216797 21.5053711,12.4042969 C21.5053711,10.09375 22.8657227,8.67871094 24.9165039,8.67871094 C26.9672852,8.67871094 28.3276367,10.09375 28.3276367,12.4042969 C28.3276367,14.7216797 26.9741211,16.1367188 24.9165039,16.1367188 Z M24.9165039,14.9199219 C26.0786133,14.9199219 26.8237305,14.0039062 26.8237305,12.4042969 C26.8237305,10.8115234 26.0717774,9.89550781 24.9165039,9.89550781 C23.7612305,9.89550781 23.0092774,10.8115234 23.0092774,12.4042969 C23.0092774,14.0039062 23.7612305,14.9199219 24.9165039,14.9199219 Z M29.2692383,16 L29.2692383,8.80859375 L30.6774414,8.80859375 L30.6774414,10.0117188 L30.7116211,10.0117188 C31.1012695,9.19140625 31.8668945,8.68554688 32.9743164,8.68554688 C34.5602539,8.68554688 35.4694336,9.69726562 35.4694336,11.3447266 L35.4694336,16 L33.9860352,16 L33.9860352,11.6318359 C33.9860352,10.5517578 33.4801758,9.95703125 32.4547852,9.95703125 C31.4157227,9.95703125 30.7458008,10.6953125 30.7458008,11.8095703 L30.7458008,16 L29.2692383,16 Z M37.1219727,7.10644531 L38.6053711,7.10644531 L38.6053711,8.80859375 L39.9725586,8.80859375 L39.9725586,9.97753906 L38.6053711,9.97753906 L38.6053711,13.9423828 C38.6053711,14.5644531 38.8788086,14.8447266 39.4803711,14.8447266 C39.6307617,14.8447266 39.8700195,14.8310547 39.9657227,14.8105469 L39.9657227,15.9794922 C39.8016602,16.0205078 39.4735352,16.0478516 39.1454102,16.0478516 C37.6893555,16.0478516 37.1219727,15.4941406 37.1219727,14.1064453 L37.1219727,9.97753906 L36.0760742,9.97753906 L36.0760742,8.80859375 L37.1219727,8.80859375 L37.1219727,7.10644531 Z M41.4131836,16 L41.4131836,9.97753906 L40.4219727,9.97753906 L40.4219727,8.82226562 L41.4131836,8.82226562 L41.4131836,8.11816406 C41.4131836,6.72363281 42.0694336,6.06738281 43.5323242,6.06738281 C43.8331055,6.06738281 44.1680664,6.1015625 44.3594727,6.13574219 L44.3594727,7.22949219 C44.215918,7.20214844 44.0176758,7.18847656 43.8194336,7.18847656 C43.1768555,7.18847656 42.8760742,7.50976562 42.8760742,8.14550781 L42.8760742,8.82226562 L44.3321289,8.82226562 L44.3321289,9.97753906 L42.896582,9.97753906 L42.896582,16 L41.4131836,16 Z M45.3420898,16 L45.3420898,8.80859375 L46.8186523,8.80859375 L46.8186523,16 L45.3420898,16 Z M46.0803711,7.64648438 C45.6086914,7.64648438 45.2258789,7.26367188 45.2258789,6.79882812 C45.2258789,6.32714844 45.6086914,5.95117188 46.0803711,5.95117188 C46.5520508,5.95117188 46.9280273,6.32714844 46.9280273,6.79882812 C46.9280273,7.26367188 46.5520508,7.64648438 46.0803711,7.64648438 Z M50.8227539,13.3544922 L50.7885742,13.3544922 L49.1958008,16 L47.5961914,16 L49.9682617,12.4111328 L47.6303711,8.80859375 L49.284668,8.80859375 L50.8569336,11.4130859 L50.8842773,11.4130859 L52.4360351,8.80859375 L54.0629883,8.80859375 L51.7045898,12.3632812 L54.0356445,16 L52.4086914,16 L50.8227539,13.3544922 Z" id="wontfix" fill="#000000" fill-rule="nonzero"></path>
        </g>
    </g>
</svg>