<?xml version="1.0" encoding="UTF-8"?>
<svg width="128px" height="24px" viewBox="0 0 128 24" version="1.1" xmlns="http://www.w3.org/2000/svg" xmlns:xlink="http://www.w3.org/1999/xlink">
    <!-- Generator: Sketch 54.1 (76490) - https://sketchapp.com -->
    <title>label-feature</title>
    <desc>Created with Sketch.</desc>
    <g id="feature" stroke="none" stroke-width="1" fill="none" fill-rule="evenodd">
        <g id="Label">
            <rect id="Background" fill="#7ED321" x="0" y="0" width="76" height="24" rx="12"></rect>
            <path d="M18.5374024,16 L18.5374024,9.97753906 L17.5461914,9.97753906 L17.5461914,8.82226562 L18.5374024,8.82226562 L18.5374024,8.11816406 C18.5374024,6.72363281 19.1936524,6.06738281 20.656543,6.06738281 C20.9573242,6.06738281 21.2922852,6.1015625 21.4836914,6.13574219 L21.4836914,7.22949219 C21.3401367,7.20214844 21.1418945,7.18847656 20.9436524,7.18847656 C20.3010742,7.18847656 20.000293,7.50976562 20.000293,8.14550781 L20.000293,8.82226562 L21.4563477,8.82226562 L21.4563477,9.97753906 L20.0208008,9.97753906 L20.0208008,16 L18.5374024,16 Z M25.1323242,9.86816406 C24.1000977,9.86816406 23.3754883,10.6542969 23.300293,11.7412109 L26.8959961,11.7412109 C26.8618164,10.640625 26.1645508,9.86816406 25.1323242,9.86816406 Z M26.8891602,13.8876953 L28.2905274,13.8876953 C28.0854492,15.2001953 26.8413086,16.1367188 25.1938477,16.1367188 C23.081543,16.1367188 21.8032227,14.7080078 21.8032227,12.4384766 C21.8032227,10.1826172 23.1020508,8.67871094 25.1323242,8.67871094 C27.128418,8.67871094 28.3725586,10.0869141 28.3725586,12.2675781 L28.3725586,12.7734375 L23.293457,12.7734375 L23.293457,12.8623047 C23.293457,14.1132812 24.0454102,14.9404297 25.2280274,14.9404297 C26.0688477,14.9404297 26.690918,14.5166016 26.8891602,13.8876953 Z M31.8297852,14.9541016 C32.8620117,14.9541016 33.6686523,14.2431641 33.6686523,13.3066406 L33.6686523,12.7392578 L31.8981445,12.8486328 C31.0163086,12.9101562 30.5172852,13.2998047 30.5172852,13.9150391 C30.5172852,14.5439453 31.0368164,14.9541016 31.8297852,14.9541016 Z M31.4196289,16.1230469 C30.0114258,16.1230469 29.0270508,15.2480469 29.0270508,13.9560547 C29.0270508,12.6982422 29.990918,11.9257812 31.6999023,11.8300781 L33.6686523,11.7138672 L33.6686523,11.1601562 C33.6686523,10.3603516 33.1286133,9.88183594 32.2262695,9.88183594 C31.3717773,9.88183594 30.8385742,10.2919922 30.7086914,10.9345703 L29.3141602,10.9345703 C29.3961914,9.63574219 30.5036133,8.67871094 32.280957,8.67871094 C34.0241211,8.67871094 35.1383789,9.6015625 35.1383789,11.0439453 L35.1383789,16 L33.7233398,16 L33.7233398,14.8173828 L33.6891602,14.8173828 C33.272168,15.6171875 32.3629883,16.1230469 31.4196289,16.1230469 Z M36.7977539,7.10644531 L38.2811523,7.10644531 L38.2811523,8.80859375 L39.6483398,8.80859375 L39.6483398,9.97753906 L38.2811523,9.97753906 L38.2811523,13.9423828 C38.2811523,14.5644531 38.5545898,14.8447266 39.1561523,14.8447266 C39.306543,14.8447266 39.5458008,14.8310547 39.6415039,14.8105469 L39.6415039,15.9794922 C39.4774414,16.0205078 39.1493164,16.0478516 38.8211914,16.0478516 C37.3651367,16.0478516 36.7977539,15.4941406 36.7977539,14.1064453 L36.7977539,9.97753906 L35.7518555,9.97753906 L35.7518555,8.80859375 L36.7977539,8.80859375 L36.7977539,7.10644531 Z M46.8243164,8.80859375 L46.8243164,16 L45.4092773,16 L45.4092773,14.7832031 L45.3750977,14.7832031 C44.9786133,15.6445312 44.247168,16.1298828 43.146582,16.1298828 C41.5811523,16.1298828 40.6241211,15.1113281 40.6241211,13.4638672 L40.6241211,8.80859375 L42.1006836,8.80859375 L42.1006836,13.1767578 C42.1006836,14.2705078 42.6202148,14.8583984 43.6387695,14.8583984 C44.7051758,14.8583984 45.3477539,14.1201172 45.3477539,12.9990234 L45.3477539,8.80859375 L46.8243164,8.80859375 Z M48.0803711,16 L48.0803711,8.80859375 L49.4885742,8.80859375 L49.4885742,10.0322266 L49.5227539,10.0322266 C49.7620117,9.19140625 50.4045898,8.69238281 51.2522461,8.69238281 C51.4641602,8.69238281 51.6487305,8.7265625 51.7581055,8.74707031 L51.7581055,10.1210938 C51.6418945,10.0732422 51.3821289,10.0390625 51.0950195,10.0390625 C50.1448242,10.0390625 49.5569336,10.6748047 49.5569336,11.6933594 L49.5569336,16 L48.0803711,16 Z M55.1743164,9.86816406 C54.1420898,9.86816406 53.4174805,10.6542969 53.3422851,11.7412109 L56.9379883,11.7412109 C56.9038086,10.640625 56.206543,9.86816406 55.1743164,9.86816406 Z M56.9311523,13.8876953 L58.3325195,13.8876953 C58.1274414,15.2001953 56.8833008,16.1367188 55.2358398,16.1367188 C53.1235351,16.1367188 51.8452148,14.7080078 51.8452148,12.4384766 C51.8452148,10.1826172 53.144043,8.67871094 55.1743164,8.67871094 C57.1704101,8.67871094 58.4145508,10.0869141 58.4145508,12.2675781 L58.4145508,12.7734375 L53.3354492,12.7734375 L53.3354492,12.8623047 C53.3354492,14.1132812 54.0874023,14.9404297 55.2700195,14.9404297 C56.1108398,14.9404297 56.7329101,14.5166016 56.9311523,13.8876953 Z" id="feature" fill="#000000" fill-rule="nonzero"></path>
        </g>
    </g>
</svg>