<?xml version="1.0" encoding="UTF-8"?>
<svg width="128px" height="24px" viewBox="0 0 128 24" version="1.1" xmlns="http://www.w3.org/2000/svg" xmlns:xlink="http://www.w3.org/1999/xlink">
    <!-- Generator: Sketch 54.1 (76490) - https://sketchapp.com -->
    <title>label-released</title>
    <desc>Created with Sketch.</desc>
    <g id="released" stroke="none" stroke-width="1" fill="none" fill-rule="evenodd">
        <g id="Label">
            <rect id="Background" fill="#33CBCC" x="0" y="0" width="72" height="24" rx="12"></rect>
            <path d="M11.7907227,16 L11.7907227,8.80859375 L13.1989258,8.80859375 L13.1989258,10.0322266 L13.2331055,10.0322266 C13.4723633,9.19140625 14.1149414,8.69238281 14.9625977,8.69238281 C15.1745117,8.69238281 15.359082,8.7265625 15.468457,8.74707031 L15.468457,10.1210938 C15.3522461,10.0732422 15.0924805,10.0390625 14.8053711,10.0390625 C13.8551758,10.0390625 13.2672852,10.6748047 13.2672852,11.6933594 L13.2672852,16 L11.7907227,16 Z M18.884668,9.86816406 C17.8524414,9.86816406 17.127832,10.6542969 17.0526367,11.7412109 L20.6483399,11.7412109 C20.6141602,10.640625 19.9168945,9.86816406 18.884668,9.86816406 Z M20.6415039,13.8876953 L22.0428711,13.8876953 C21.837793,15.2001953 20.5936524,16.1367188 18.9461914,16.1367188 C16.8338867,16.1367188 15.5555664,14.7080078 15.5555664,12.4384766 C15.5555664,10.1826172 16.8543945,8.67871094 18.884668,8.67871094 C20.8807617,8.67871094 22.1249024,10.0869141 22.1249024,12.2675781 L22.1249024,12.7734375 L17.0458008,12.7734375 L17.0458008,12.8623047 C17.0458008,14.1132812 17.7977539,14.9404297 18.9803711,14.9404297 C19.8211914,14.9404297 20.4432617,14.5166016 20.6415039,13.8876953 Z M23.1211914,16 L23.1211914,6.13574219 L24.5977539,6.13574219 L24.5977539,16 L23.1211914,16 Z M28.9231445,9.86816406 C27.890918,9.86816406 27.1663086,10.6542969 27.0911133,11.7412109 L30.6868164,11.7412109 C30.6526367,10.640625 29.9553711,9.86816406 28.9231445,9.86816406 Z M30.6799805,13.8876953 L32.0813477,13.8876953 C31.8762695,15.2001953 30.6321289,16.1367188 28.984668,16.1367188 C26.8723633,16.1367188 25.594043,14.7080078 25.594043,12.4384766 C25.594043,10.1826172 26.8928711,8.67871094 28.9231445,8.67871094 C30.9192383,8.67871094 32.1633789,10.0869141 32.1633789,12.2675781 L32.1633789,12.7734375 L27.0842773,12.7734375 L27.0842773,12.8623047 C27.0842773,14.1132812 27.8362305,14.9404297 29.0188477,14.9404297 C29.859668,14.9404297 30.4817383,14.5166016 30.6799805,13.8876953 Z M35.6206055,14.9541016 C36.652832,14.9541016 37.4594727,14.2431641 37.4594727,13.3066406 L37.4594727,12.7392578 L35.6889648,12.8486328 C34.8071289,12.9101562 34.3081055,13.2998047 34.3081055,13.9150391 C34.3081055,14.5439453 34.8276367,14.9541016 35.6206055,14.9541016 Z M35.2104492,16.1230469 C33.8022461,16.1230469 32.8178711,15.2480469 32.8178711,13.9560547 C32.8178711,12.6982422 33.7817383,11.9257812 35.4907227,11.8300781 L37.4594727,11.7138672 L37.4594727,11.1601562 C37.4594727,10.3603516 36.9194336,9.88183594 36.0170898,9.88183594 C35.1625977,9.88183594 34.6293945,10.2919922 34.4995117,10.9345703 L33.1049805,10.9345703 C33.1870117,9.63574219 34.2944336,8.67871094 36.0717773,8.67871094 C37.8149414,8.67871094 38.9291992,9.6015625 38.9291992,11.0439453 L38.9291992,16 L37.5141602,16 L37.5141602,14.8173828 L37.4799805,14.8173828 C37.0629883,15.6171875 36.1538086,16.1230469 35.2104492,16.1230469 Z M40.0280273,10.8457031 C40.0280273,9.56054688 41.1491211,8.67871094 42.803418,8.67871094 C44.4782227,8.67871094 45.5651367,9.60839844 45.6129883,10.9345703 L44.225293,10.9345703 C44.1432617,10.2373047 43.6305664,9.79980469 42.803418,9.79980469 C42.0036133,9.79980469 41.4704102,10.1894531 41.4704102,10.7636719 C41.4704102,11.2148438 41.7985352,11.5224609 42.577832,11.7001953 L43.7467773,11.9667969 C45.2165039,12.3085938 45.7770508,12.8828125 45.7770508,13.921875 C45.7770508,15.234375 44.553418,16.1367188 42.8581055,16.1367188 C41.0602539,16.1367188 39.9801758,15.2548828 39.843457,13.8876953 L41.3063477,13.8876953 C41.4430664,14.6396484 41.9557617,15.0087891 42.8581055,15.0087891 C43.7467773,15.0087891 44.2936523,14.6396484 44.2936523,14.0517578 C44.2936523,13.5869141 44.0270508,13.3134766 43.240918,13.1357422 L42.0719727,12.8623047 C40.7047852,12.5478516 40.0280273,11.8916016 40.0280273,10.8457031 Z M49.7264648,9.86816406 C48.6942383,9.86816406 47.9696289,10.6542969 47.8944336,11.7412109 L51.4901367,11.7412109 C51.455957,10.640625 50.7586914,9.86816406 49.7264648,9.86816406 Z M51.4833008,13.8876953 L52.884668,13.8876953 C52.6795898,15.2001953 51.4354492,16.1367188 49.7879883,16.1367188 C47.6756836,16.1367188 46.3973633,14.7080078 46.3973633,12.4384766 C46.3973633,10.1826172 47.6961914,8.67871094 49.7264648,8.67871094 C51.7225586,8.67871094 52.9666992,10.0869141 52.9666992,12.2675781 L52.9666992,12.7734375 L47.8875977,12.7734375 L47.8875977,12.8623047 C47.8875977,14.1132812 48.6395508,14.9404297 49.822168,14.9404297 C50.6629883,14.9404297 51.2850586,14.5166016 51.4833008,13.8876953 Z M56.6084961,16.1230469 C54.7901367,16.1230469 53.5870117,14.6738281 53.5870117,12.4042969 C53.5870117,10.1347656 54.7901367,8.69238281 56.5948242,8.69238281 C57.6270508,8.69238281 58.4473633,9.21191406 58.8506836,10.0048828 L58.8780273,10.0048828 L58.8780273,6.13574219 L60.3614258,6.13574219 L60.3614258,16 L58.9258789,16 L58.9258789,14.7763672 L58.8985351,14.7763672 C58.474707,15.5966797 57.6543945,16.1230469 56.6084961,16.1230469 Z M56.9981445,9.93652344 C55.8291992,9.93652344 55.0977539,10.8935547 55.0977539,12.4042969 C55.0977539,13.921875 55.8291992,14.8720703 56.9981445,14.8720703 C58.1329101,14.8720703 58.8916992,13.9082031 58.8916992,12.4042969 C58.8916992,10.9140625 58.1329101,9.93652344 56.9981445,9.93652344 Z" id="released" fill="#000000" fill-rule="nonzero"></path>
        </g>
    </g>
</svg>