<?xml version="1.0" encoding="UTF-8"?>
<svg width="128px" height="24px" viewBox="0 0 128 24" version="1.1" xmlns="http://www.w3.org/2000/svg" xmlns:xlink="http://www.w3.org/1999/xlink">
    <!-- Generator: Sketch 54.1 (76490) - https://sketchapp.com -->
    <title>label-git</title>
    <desc>Created with Sketch.</desc>
    <g id="git" stroke="none" stroke-width="1" fill="none" fill-rule="evenodd">
        <g id="Label">
            <rect id="Background" fill="#ADCFFF" x="0" y="0" width="37" height="24" rx="12"></rect>
            <path d="M14.8761719,14.8037109 C16.0314453,14.8037109 16.7902344,13.8671875 16.7902344,12.3837891 C16.7902344,10.9072266 16.0314453,9.93652344 14.8761719,9.93652344 C13.7414063,9.93652344 13.003125,10.8867188 13.003125,12.3837891 C13.003125,13.8876953 13.7414063,14.8037109 14.8761719,14.8037109 Z M14.8898438,18.7070312 C13.1945313,18.7070312 11.9367188,17.8046875 11.7521484,16.5605469 L13.2355469,16.5605469 C13.4474609,17.1621094 14.1037109,17.5585938 14.9445313,17.5585938 C16.0998047,17.5585938 16.7833984,16.9023438 16.7833984,15.9179688 L16.7833984,14.7353516 L16.7560547,14.7353516 C16.3527344,15.5146484 15.5050781,16.0273438 14.4796875,16.0273438 C12.675,16.0273438 11.4923828,14.6191406 11.4923828,12.3769531 C11.4923828,10.1142578 12.6681641,8.69238281 14.5138672,8.69238281 C15.5324219,8.69238281 16.3664063,9.20507812 16.8039063,10.0390625 L16.83125,10.0390625 L16.83125,8.80859375 L18.2667969,8.80859375 L18.2667969,15.8701172 C18.2667969,17.5859375 16.940625,18.7070312 14.8898438,18.7070312 Z M19.5707031,16 L19.5707031,8.80859375 L21.0472656,8.80859375 L21.0472656,16 L19.5707031,16 Z M20.3089844,7.64648438 C19.8373047,7.64648438 19.4544922,7.26367188 19.4544922,6.79882812 C19.4544922,6.32714844 19.8373047,5.95117188 20.3089844,5.95117188 C20.7806641,5.95117188 21.1566406,6.32714844 21.1566406,6.79882812 C21.1566406,7.26367188 20.7806641,7.64648438 20.3089844,7.64648438 Z M22.7886719,7.10644531 L24.2720703,7.10644531 L24.2720703,8.80859375 L25.6392578,8.80859375 L25.6392578,9.97753906 L24.2720703,9.97753906 L24.2720703,13.9423828 C24.2720703,14.5644531 24.5455078,14.8447266 25.1470703,14.8447266 C25.2974609,14.8447266 25.5367187,14.8310547 25.6324219,14.8105469 L25.6324219,15.9794922 C25.4683594,16.0205078 25.1402344,16.0478516 24.8121094,16.0478516 C23.3560547,16.0478516 22.7886719,15.4941406 22.7886719,14.1064453 L22.7886719,9.97753906 L21.7427734,9.97753906 L21.7427734,8.80859375 L22.7886719,8.80859375 L22.7886719,7.10644531 Z" id="git" fill="#000000" fill-rule="nonzero"></path>
        </g>
    </g>
</svg>