<?xml version="1.0" encoding="UTF-8"?>
<svg width="128px" height="24px" viewBox="0 0 128 24" version="1.1" xmlns="http://www.w3.org/2000/svg" xmlns:xlink="http://www.w3.org/1999/xlink">
    <!-- Generator: Sketch 54.1 (76490) - https://sketchapp.com -->
    <title>label-performance</title>
    <desc>Created with Sketch.</desc>
    <g id="performance" stroke="none" stroke-width="1" fill="none" fill-rule="evenodd">
        <g id="Label">
            <rect id="Background" fill="#F5A623" x="0" y="0" width="97" height="24" rx="12"></rect>
            <path d="M17.5795899,8.69238281 C19.4047852,8.69238281 20.6079102,10.1279297 20.6079102,12.4042969 C20.6079102,14.6806641 19.4116211,16.1230469 17.6069336,16.1230469 C16.574707,16.1230469 15.7543945,15.6171875 15.3442383,14.8173828 L15.3100586,14.8173828 L15.3100586,18.3789062 L13.8334961,18.3789062 L13.8334961,8.80859375 L15.262207,8.80859375 L15.262207,10.0458984 L15.2895508,10.0458984 C15.7133789,9.21875 16.5405274,8.69238281 17.5795899,8.69238281 Z M17.1899414,14.8720703 C18.3588867,14.8720703 19.090332,13.9150391 19.090332,12.4042969 C19.090332,10.9003906 18.3588867,9.93652344 17.1899414,9.93652344 C16.0620117,9.93652344 15.3032227,10.9208984 15.3032227,12.4042969 C15.3032227,13.9013672 16.0551758,14.8720703 17.1899414,14.8720703 Z M24.5504883,9.86816406 C23.5182617,9.86816406 22.7936524,10.6542969 22.718457,11.7412109 L26.3141602,11.7412109 C26.2799805,10.640625 25.5827149,9.86816406 24.5504883,9.86816406 Z M26.3073242,13.8876953 L27.7086914,13.8876953 C27.5036133,15.2001953 26.2594727,16.1367188 24.6120117,16.1367188 C22.499707,16.1367188 21.2213867,14.7080078 21.2213867,12.4384766 C21.2213867,10.1826172 22.5202149,8.67871094 24.5504883,8.67871094 C26.546582,8.67871094 27.7907227,10.0869141 27.7907227,12.2675781 L27.7907227,12.7734375 L22.7116211,12.7734375 L22.7116211,12.8623047 C22.7116211,14.1132812 23.4635742,14.9404297 24.6461914,14.9404297 C25.4870117,14.9404297 26.109082,14.5166016 26.3073242,13.8876953 Z M29.1629883,16 L29.1629883,9.97753906 L28.1717774,9.97753906 L28.1717774,8.82226562 L29.1629883,8.82226562 L29.1629883,8.11816406 C29.1629883,6.72363281 29.8192383,6.06738281 31.2821289,6.06738281 C31.5829102,6.06738281 31.9178711,6.1015625 32.1092774,6.13574219 L32.1092774,7.22949219 C31.9657227,7.20214844 31.7674805,7.18847656 31.5692383,7.18847656 C30.9266602,7.18847656 30.6258789,7.50976562 30.6258789,8.14550781 L30.6258789,8.82226562 L32.0819336,8.82226562 L32.0819336,9.97753906 L30.6463867,9.97753906 L30.6463867,16 L29.1629883,16 Z M35.8399414,16.1367188 C33.7823242,16.1367188 32.4288086,14.7216797 32.4288086,12.4042969 C32.4288086,10.09375 33.7891602,8.67871094 35.8399414,8.67871094 C37.8907227,8.67871094 39.2510742,10.09375 39.2510742,12.4042969 C39.2510742,14.7216797 37.8975586,16.1367188 35.8399414,16.1367188 Z M35.8399414,14.9199219 C37.0020508,14.9199219 37.747168,14.0039062 37.747168,12.4042969 C37.747168,10.8115234 36.9952148,9.89550781 35.8399414,9.89550781 C34.684668,9.89550781 33.9327148,10.8115234 33.9327148,12.4042969 C33.9327148,14.0039062 34.684668,14.9199219 35.8399414,14.9199219 Z M40.1926758,16 L40.1926758,8.80859375 L41.6008789,8.80859375 L41.6008789,10.0322266 L41.6350586,10.0322266 C41.8743164,9.19140625 42.5168945,8.69238281 43.3645508,8.69238281 C43.5764648,8.69238281 43.7610352,8.7265625 43.8704102,8.74707031 L43.8704102,10.1210938 C43.7541992,10.0732422 43.4944336,10.0390625 43.2073242,10.0390625 C42.2571289,10.0390625 41.6692383,10.6748047 41.6692383,11.6933594 L41.6692383,16 L40.1926758,16 Z M44.5864258,16 L44.5864258,8.80859375 L45.9946289,8.80859375 L45.9946289,10.0185547 L46.0288086,10.0185547 C46.3500977,9.21875 47.1020508,8.68554688 48.0727539,8.68554688 C49.0708008,8.68554688 49.7954102,9.19824219 50.0825195,10.09375 L50.1166992,10.09375 C50.4858398,9.21875 51.3334961,8.68554688 52.3588867,8.68554688 C53.7807617,8.68554688 54.7104492,9.62890625 54.7104492,11.0576172 L54.7104492,16 L53.2270508,16 L53.2270508,11.4130859 C53.2270508,10.4833984 52.7280273,9.95019531 51.8530273,9.95019531 C50.9780273,9.95019531 50.3696289,10.5996094 50.3696289,11.5087891 L50.3696289,16 L48.9204102,16 L48.9204102,11.3037109 C48.9204102,10.4765625 48.394043,9.95019531 47.5600586,9.95019531 C46.6850586,9.95019531 46.0629883,10.6337891 46.0629883,11.5566406 L46.0629883,16 L44.5864258,16 Z M58.4479492,14.9541016 C59.4801758,14.9541016 60.2868164,14.2431641 60.2868164,13.3066406 L60.2868164,12.7392578 L58.5163086,12.8486328 C57.6344727,12.9101562 57.1354492,13.2998047 57.1354492,13.9150391 C57.1354492,14.5439453 57.6549805,14.9541016 58.4479492,14.9541016 Z M58.037793,16.1230469 C56.6295898,16.1230469 55.6452148,15.2480469 55.6452148,13.9560547 C55.6452148,12.6982422 56.609082,11.9257812 58.3180664,11.8300781 L60.2868164,11.7138672 L60.2868164,11.1601562 C60.2868164,10.3603516 59.7467773,9.88183594 58.8444336,9.88183594 C57.9899414,9.88183594 57.4567383,10.2919922 57.3268555,10.9345703 L55.9323242,10.9345703 C56.0143555,9.63574219 57.1217773,8.67871094 58.8991211,8.67871094 C60.6422852,8.67871094 61.756543,9.6015625 61.756543,11.0439453 L61.756543,16 L60.3415039,16 L60.3415039,14.8173828 L60.3073242,14.8173828 C59.890332,15.6171875 58.9811523,16.1230469 58.037793,16.1230469 Z M62.9852539,16 L62.9852539,8.80859375 L64.393457,8.80859375 L64.393457,10.0117188 L64.4276367,10.0117188 C64.8172852,9.19140625 65.5829102,8.68554688 66.690332,8.68554688 C68.2762695,8.68554688 69.1854492,9.69726562 69.1854492,11.3447266 L69.1854492,16 L67.7020508,16 L67.7020508,11.6318359 C67.7020508,10.5517578 67.1961914,9.95703125 66.1708008,9.95703125 C65.1317383,9.95703125 64.4618164,10.6953125 64.4618164,11.8095703 L64.4618164,16 L62.9852539,16 Z M76.5801758,11.2832031 L75.1719726,11.2832031 C75.021582,10.5175781 74.4473633,9.90917969 73.4834961,9.90917969 C72.3418945,9.90917969 71.5899414,10.859375 71.5899414,12.4042969 C71.5899414,13.9833984 72.3487305,14.8994141 73.497168,14.8994141 C74.4063476,14.8994141 75.0010742,14.4003906 75.1719726,13.5664062 L76.5938476,13.5664062 C76.4366211,15.0976562 75.2129883,16.1367188 73.4834961,16.1367188 C71.4258789,16.1367188 70.0860351,14.7285156 70.0860351,12.4042969 C70.0860351,10.1210938 71.4258789,8.67871094 73.4698242,8.67871094 C75.3223633,8.67871094 76.450293,9.86816406 76.5801758,11.2832031 Z M80.4475586,9.86816406 C79.415332,9.86816406 78.6907226,10.6542969 78.6155273,11.7412109 L82.2112305,11.7412109 C82.1770508,10.640625 81.4797851,9.86816406 80.4475586,9.86816406 Z M82.2043945,13.8876953 L83.6057617,13.8876953 C83.4006836,15.2001953 82.156543,16.1367188 80.509082,16.1367188 C78.3967773,16.1367188 77.118457,14.7080078 77.118457,12.4384766 C77.118457,10.1826172 78.4172851,8.67871094 80.4475586,8.67871094 C82.4436523,8.67871094 83.687793,10.0869141 83.687793,12.2675781 L83.687793,12.7734375 L78.6086914,12.7734375 L78.6086914,12.8623047 C78.6086914,14.1132812 79.3606445,14.9404297 80.5432617,14.9404297 C81.384082,14.9404297 82.0061523,14.5166016 82.2043945,13.8876953 Z" id="peformance" fill="#000000" fill-rule="nonzero"></path>
        </g>
    </g>
</svg>